PathFileType	4	(X/Y/Z)	C:/Users/beibeiliu/ov580/test_trc\sequence.5_training_dense_left.trc
DataRate	CameraRate	NumFrames	NumMarkers	Units	OrigDataRate	OrigDataStartFrame	OrigNumFrames
120	120	14	19	mm	120	27	53
Frame#	Time	ThumbCMC			ThumbMCP			ThumbIP			ThumbTip			IndexMCP			IndexPIP			IndexTip			MiddleMCP			MiddlePIP			MiddleTip			RingMCP			RingPIP			RingTip			PinkyMCP			PinkyPIP			PinkyTip			BackHand1			BackHand2			BackHand3	
		X0	Y0	Z0	X1	Y1	Z1	X2	Y2	Z2	X3	Y3	Z3	X4	Y4	Z4	X5	Y5	Z5	X6	Y6	Z6	X7	Y7	Z7	X8	Y8	Z8	X9	Y9	Z9	X10	Y10	Z10	X11	Y11	Z11	X12	Y12	Z12	X13	Y13	Z13	X14	Y14	Z14	X15	Y15	Z15	X16	Y16	Z16	X17	Y17	Z17	X18	Y18	Z18	
26	0.216667	-232.667	43.8398	99.717	-208.339	44.9868	82.8534	-194.917	49.1444	61.7625	-182.495	51.9059	43.7484	-255.085	57.1062	31.4987	-255.704	56.8287	3.9361	-251.568	55.3242	-20.1653	-277.248	37.1603	20.2076	-272.133	38.7536	-5.2204	-267.8	33.2489	-33.3886	-284.067	21.4155	22.0059	-282.174	16.53	-4.79863	-274.777	11.0219	-31.6385	-292.097	-3.57472	34.7458	-290.066	-7.50858	9.3495	-293.63	-14.3668	-12.6024	-291.934	17.4904	73.2395	-293.958	15.5064	106.66	-271.303	42.4491	91.1264	
27	0.225	-211.156	33.2635	103.597	-183.425	26.5075	92.5299	-163.593	26.9211	69.016	-148.165	24.8882	53.9913	-221.514	50.7835	33.8114	-211.65	54.0541	4.74259	-211.358	46.5846	-19.5915	-241.229	44.5085	20.2656	-241.214	39.906	-6.8658	-230.855	31.4309	-36.7866	-260.684	28.3827	23.4664	-256.666	22.319	-5.91833	-251.765	13.9376	-27.9875	-276.924	10.6589	33.8661	-273.613	5.93995	12.9974	-274.251	-2.37016	-13.6039	-265.975	32.8658	75.1466	-273.733	30.0764	104.745	-243.883	46.7871	89.1257	
28	0.233333	-184.964	22.8622	110.213	-167.812	7.00075	102.285	-146.305	-0.663178	84.916	-131.138	-7.67607	71.4051	-184.995	32.9022	36.5457	-176.813	27.8257	12.5934	-170.448	15.7782	-15.7186	-206.599	29.8453	27.8429	-202.142	21.5181	-3.25775	-199.676	6.88586	-25.2676	-227.96	20.0936	24.0271	-223.248	11.2572	-1.44259	-218.672	-2.58987	-21.6873	-248.371	10.8957	36.2308	-250.409	-0.467336	12.2746	-249.864	-10.8524	-11.1471	-242.129	34.1584	71.7685	-247.712	38.6126	105.9	-215.265	44.1183	93.8228	
29	0.241667	-175.399	18.8003	119.865	-155.09	1.97763	109.83	-129.678	-5.05114	101.014	-113.644	-14.7019	89.3355	-168.602	14.7005	44.5013	-154.197	5.43239	21.8806	-143.431	-10.5522	-0.315727	-191.039	9.48554	29.852	-182.081	-4.14822	6.20949	-172.281	-24.9647	-16.6125	-208.006	0.155226	31.2104	-202.666	-14.1603	8.63019	-197.995	-32.6327	-10.1054	-228.049	-7.28336	42.0235	-228.248	-21.6812	18.912	-223.352	-37.4935	-0.421262	-223.292	23.9599	78.4169	-232.568	31.1378	103.295	-199.985	36.7254	95.7718	
30	0.25	-176.393	29.2779	114.49	-147.696	21.0264	112.474	-128.28	14.176	104.257	-106.074	8.87278	92.8221	-158.21	13.7953	43.7931	-149.005	0.956529	27.3617	-133.932	-18.2587	7.06301	-183.045	-1.80085	36.5409	-169.852	-19.2786	14.3743	-156.501	-40.038	0.242615	-196.386	-14.8565	35.4003	-186.717	-34.3047	18.1016	-168.988	-50.7598	6.19017	-215.235	-26.2536	47.672	-209.516	-42.7439	33.1982	-196.884	-62.9664	14.0466	-224.237	11.986	72.8124	-235.591	23.637	100.27	-204.051	35.399	89.6488	
31	0.258333	-189.174	40.9586	112.785	-158.218	42.6341	110.902	-138.324	41.9067	100.341	-115.829	46.6455	92.1544	-167.426	17.1522	41.8305	-149.785	10.8248	26.9819	-131.339	-3.66538	10.889	-178.192	-3.67224	35.0834	-160.009	-17.7957	19.415	-138.286	-33.2257	5.72953	-190.933	-22.8763	43.1485	-174.125	-34.6588	28.4053	-150.959	-49.5532	15.9375	-204.395	-37.5626	57.846	-189.758	-54.5992	41.9989	-175.09	-66.7017	29.8674	-225.354	0.369376	75.6291	-239.552	11.1462	101.695	-212.132	33.0292	87.1973	
32	0.266667	-210.113	46.9768	106.828	-184.815	58.3374	104.132	-162.809	68.7513	92.8612	-144.689	73.0232	80.7934	-186.35	28.8151	41.4865	-165.541	22.561	21.4851	-144.896	13.584	6.16774	-187.603	0.188539	36.9315	-166.532	-7.30113	18.4816	-139.277	-13.6931	6.06558	-189.41	-17.4127	43.1682	-170.437	-27.9883	29.4912	-144.776	-34.038	18.5063	-194.14	-38.9454	60.1464	-175.42	-45.3103	45.7354	-154.662	-56.4353	32.3724	-228.626	-9.71432	75.9419	-245.58	-1.76638	102.515	-231.05	21.5583	86.3378	
33	0.275	-237.271	49.7898	101.185	-215.38	68.4595	94.0261	-195.859	82.7141	78.0524	-183.513	90.6161	68.7181	-208.181	28.2437	34.4308	-189.851	29.58	13.6983	-168.082	29.7507	-2.81346	-200.597	5.97001	29.5106	-180.611	2.9851	12.6707	-155.472	4.13597	-1.09824	-194.146	-12.0117	38.4755	-174.433	-16.363	25.8177	-147.595	-15.2897	11.8107	-190.073	-33.2338	55.8379	-171.832	-33.9996	43.8564	-153.158	-43.3859	30.8827	-234.208	-11.8692	74.5878	-249.485	-12.1839	98.3189	-248.055	14.4023	81.036	
34	0.283333	-258.022	37.0259	97.8885	-243.617	62.6111	89.4044	-231.427	77.2555	72.2269	-220.109	89.2713	55.8752	-232.839	22.7351	29.8368	-213.381	26.9886	4.95425	-198.417	28.2662	-10.0805	-218.433	0.686856	23.7906	-197.316	1.97022	4.89916	-172.792	9.80262	-12.3	-206.074	-16.4394	36.2519	-186.909	-11.6832	16.7261	-162.501	-6.61011	2.31454	-197.364	-30.0542	57.358	-177.278	-29.7775	38.2896	-159.278	-31.1074	22.2362	-241.145	-21.3928	74.9461	-254.819	-24.9263	103.757	-260.549	-0.336989	81.2351	
35	0.291667	-274.684	25.3982	99.5106	-263.803	49.2684	82.0775	-256.924	63.3181	65.174	-249.666	77.3145	47.2569	-254.941	9.00203	26.2529	-241.604	17.4657	0.400699	-227.273	18.4861	-15.665	-233.82	-14.3222	23.1665	-219.262	-6.89143	0.755271	-200.182	1.69901	-19.7408	-219.327	-25.4225	34.2693	-202.787	-20.1418	11.8676	-185.438	-11.4085	-4.12477	-204.967	-35.931	49.8683	-188.593	-33.2125	33.1651	-171.878	-34.4233	19.5303	-247.288	-34.9964	75.608	-257.951	-37.7443	105.58	-271.369	-13.3329	86.4329	
36	0.3	-288.129	12.0171	99.884	-279.731	33.3696	80.0514	-277.302	47.5477	61.2649	-277.807	63.9843	41.7609	-271.641	-12.4021	27.8489	-264.428	-7.9469	4.77622	-251.054	-4.8291	-18.1074	-255.237	-30.9299	26.332	-244.68	-26.6632	1.77653	-224.401	-21.6936	-20.8756	-237.13	-40.3934	36.4195	-224.353	-37.1888	13.8537	-207.054	-26.0845	-12.1657	-220.435	-46.1453	48.3111	-207.217	-44.5316	30.7673	-188.702	-46.8766	11.8607	-256	-48.2151	83.7036	-265.077	-48.0263	109.692	-282.397	-27.8271	90.7131	
37	0.308333	-299.292	1.33049	98.3121	-294.461	21.7228	76.1497	-294.125	34.6219	58.048	-296.447	48.1106	37.5224	-298.445	-31.3679	26.8555	-294.917	-29.0064	2.05786	-286.035	-25.4745	-21.7041	-281.499	-50.9554	30.5889	-273.888	-51.2717	1.79386	-258.488	-47.6573	-23.5011	-262.657	-60.7773	36.602	-254.468	-58.294	7.41184	-236.925	-53.5834	-17.1467	-245.313	-66.2163	52.4807	-232.722	-67.844	29.6358	-224.718	-69.3237	7.58585	-278.561	-57.4668	88.1736	-277.399	-59.0577	115.773	-302.3	-36.3984	93.3304	
38	0.316667	-298.983	8.62515	97.5359	-291.242	31.6034	76.8459	-290.72	43.8006	53.9566	-287.256	50.2565	35.0715	-314.285	-21.3598	32.1558	-314	-19.2339	2.22942	-304.816	-24.8474	-22.0038	-305.586	-42.6406	29.3692	-298.149	-49.0999	0.207383	-283.924	-50.2335	-29.1132	-288.624	-57.5064	32.6297	-280.795	-61.4762	6.95448	-267.946	-59.7705	-17.9759	-269.936	-68.2001	45.6275	-260.025	-74.8804	25.3012	-250.574	-79.6025	-1.91165	-292.338	-54.3295	87.2274	-294.333	-48.3403	113.999	-313.152	-25.3869	95.3104	
39	0.325	-284.011	25.4405	95.9249	-269.005	40.0915	76.6212	-263.622	55.3502	50.1004	-258.882	64.2419	27.4406	-309.861	4.45914	25.1311	-309.202	5.77609	3.34875	-303.337	1.43294	-25.5094	-309.227	-23.2314	24.2845	-304.9	-26.8468	-4.04377	-295.388	-32.1936	-28.0781	-299.741	-37.1877	30.6735	-293.559	-44.9333	3.28211	-281.652	-49.2068	-23.6299	-286.507	-56.4637	40.9132	-280.461	-63.3818	19.3686	-272.592	-68.8495	-6.01189	-303.989	-32.0927	83.8259	-299.13	-31.6339	111.44	-308.193	0.537639	94.988	
